HIERARCHY
ROOT Hips
{
	OFFSET -0.001795 -0.223333 0.028219
	CHANNELS 6 Xposition Yposition Zposition Zrotation Yrotation Xrotation 
	JOINT LeftUpLeg
	{
		OFFSET 0.069520 -0.091406 -0.006815
		CHANNELS 3 Zrotation Yrotation Xrotation
		JOINT LeftLeg
		{
			OFFSET 0.034277 -0.375199 -0.004496
			CHANNELS 3 Zrotation Yrotation Xrotation
			JOINT LeftFoot
			{
				OFFSET -0.013596 -0.397961 -0.043693
				CHANNELS 3 Zrotation Yrotation Xrotation
				JOINT LeftToe
				{
					OFFSET 0.026358 -0.055791 0.119288
					CHANNELS 3 Zrotation Yrotation Xrotation
					End Site
					{
						OFFSET 0.000000 0.000000 0.000000
					}
				}
			}
		}
	}
	JOINT RightUpLeg
	{
		OFFSET -0.067670 -0.090522 -0.004320
		CHANNELS 3 Zrotation Yrotation Xrotation
		JOINT RightLeg
		{
			OFFSET -0.038290 -0.382569 -0.008850
			CHANNELS 3 Zrotation Yrotation Xrotation
			JOINT RightFoot
			{
				OFFSET 0.015774 -0.398415 -0.042312
				CHANNELS 3 Zrotation Yrotation Xrotation
				JOINT RightToe
				{
					OFFSET -0.025372 -0.048144 0.123348
					CHANNELS 3 Zrotation Yrotation Xrotation
					End Site
					{
						OFFSET 0.000000 0.000000 0.000000
					}
				}
			}
		}
	}
	JOINT Spine
	{
		OFFSET -0.002533 0.108963 -0.026696
		CHANNELS 3 Zrotation Yrotation Xrotation
		JOINT Spine1
		{
			OFFSET 0.005487 0.135180 0.001092
			CHANNELS 3 Zrotation Yrotation Xrotation
			JOINT Spine2
			{
				OFFSET 0.001457 0.052922 0.025425
				CHANNELS 3 Zrotation Yrotation Xrotation
				JOINT Neck
				{
					OFFSET -0.002778 0.213870 -0.042857
					CHANNELS 3 Zrotation Yrotation Xrotation
					JOINT Head
					{
						OFFSET 0.005152 0.064970 0.051349
						CHANNELS 3 Zrotation Yrotation Xrotation
						End Site
						{
							OFFSET 0.000000 0.000000 0.000000
						}
					}
				}
				JOINT LeftShoulder
				{
					OFFSET 0.078845 0.121749 -0.034090
					CHANNELS 3 Zrotation Yrotation Xrotation
					JOINT LeftArm
					{
						OFFSET 0.090977 0.030469 -0.008868
						CHANNELS 3 Zrotation Yrotation Xrotation
						JOINT LeftForeArm
						{
							OFFSET 0.259612 -0.012772 -0.027456
							CHANNELS 3 Zrotation Yrotation Xrotation
							JOINT LeftHand
							{
								OFFSET 0.249234 0.008986 -0.001171
								CHANNELS 3 Zrotation Yrotation Xrotation
								End Site
								{
									OFFSET 0.000000 0.000000 0.000000
								}
							}
						}
					}
				}
				JOINT RightShoulder
				{
					OFFSET -0.081759 0.118833 -0.038615
					CHANNELS 3 Zrotation Yrotation Xrotation
					JOINT RightArm
					{
						OFFSET -0.096012 0.032551 -0.009143
						CHANNELS 3 Zrotation Yrotation Xrotation
						JOINT RightForeArm
						{
							OFFSET -0.253742 -0.013329 -0.021401
							CHANNELS 3 Zrotation Yrotation Xrotation
							JOINT RightHand
							{
								OFFSET -0.255298 0.007772 -0.005559
								CHANNELS 3 Zrotation Yrotation Xrotation
								End Site
								{
									OFFSET 0.000000 0.000000 0.000000
								}
							}
						}
					}
				}
			}
		}
	}
}
MOTION
Frames: 5
Frame Time: 0.050000
-1.835311 0.964637 1.895846 174.400549 68.086134 175.223310 -2.151730 -6.020917 -24.041118 -8.112807 -8.162677 25.244281 6.704049 7.911715 10.245908 0.000000 0.000000 0.000000 4.026472 -1.568717 5.138983 -2.691052 -11.363204 19.949757 -22.877267 -16.116541 50.635181 0.000000 0.000000 0.000000 -8.537749 -4.871336 23.370967 6.023170 1.293064 -32.143669 4.079383 19.585290 32.687439 -1.126097 8.782095 -37.904999 0.000000 0.000000 0.000000 -22.510243 0.439960 -47.086355 -44.667907 33.997057 -12.915384 -30.082157 -35.231660 5.735089 0.000000 0.000000 0.000000 30.234333 -13.387968 29.772432 48.685256 46.650793 7.395709 -16.829807 19.305751 -1.988446 0.000000 0.000000 0.000000 
-1.857613 0.964594 1.906483 174.285001 69.300144 175.233178 -2.909815 -4.866955 -21.956801 -13.087045 -10.923099 32.162963 9.183695 15.950593 19.606668 0.000000 0.000000 0.000000 3.013239 -1.784762 5.326603 -1.859005 -10.698651 18.924966 -19.891166 -14.306695 43.704150 0.000000 0.000000 0.000000 -7.514662 -4.129573 21.732075 6.366190 1.591939 -30.434132 3.189231 19.114232 31.321877 -0.977895 8.747061 -36.897557 0.000000 0.000000 0.000000 -22.576470 0.915287 -46.190602 -45.683677 34.249596 -13.662929 -26.631303 -34.913724 4.329880 0.000000 0.000000 0.000000 29.586749 -12.844435 28.569689 48.763478 44.321763 6.931775 -16.848834 21.261304 -2.136288 0.000000 0.000000 0.000000 
-1.878533 0.962500 1.916502 173.341982 68.650080 174.368853 -4.917457 -3.138236 -17.982774 -13.279366 -11.845914 33.966940 11.001123 19.015231 33.465484 0.000000 0.000000 0.000000 2.006036 -2.101355 5.597762 -0.769584 -11.162440 18.520630 -17.335344 -14.256159 35.441599 0.000000 0.000000 0.000000 -5.984966 -3.745292 20.676088 5.921150 1.749658 -30.098978 1.904997 16.763350 31.030691 -0.248824 9.019402 -36.805654 0.000000 0.000000 0.000000 -23.585067 0.362007 -46.490498 -46.510205 35.405641 -14.008174 -22.831861 -36.264260 3.190322 0.000000 0.000000 0.000000 30.808627 -12.431953 29.521381 47.474757 45.176075 6.089267 -19.778110 20.685254 -2.295928 0.000000 0.000000 0.000000 
-1.899962 0.958286 1.927272 173.997704 69.054434 174.332336 -5.661325 -1.432269 -13.046391 -9.643704 -10.785651 31.461880 13.455979 17.345478 28.316807 0.000000 0.000000 0.000000 1.693374 -2.240356 5.918336 -0.110859 -12.247666 19.335390 -13.569792 -14.654295 25.537455 0.000000 0.000000 0.000000 -4.104944 -3.293413 19.335912 5.162916 1.999779 -28.501368 1.208920 15.266085 30.809968 -0.170793 8.939223 -35.378321 0.000000 0.000000 0.000000 -22.630087 0.108711 -44.663579 -50.332994 34.163355 -15.643326 -16.368310 -36.071857 0.481092 0.000000 0.000000 0.000000 30.185341 -10.874795 29.387992 48.734292 44.415697 6.838263 -23.131358 20.789641 -2.472423 0.000000 0.000000 0.000000 
-1.923449 0.955342 1.939634 173.758537 67.636709 174.710109 -6.611816 -0.894525 -10.754837 -3.942181 -8.841764 26.559542 11.307368 12.465331 18.743901 0.000000 0.000000 0.000000 2.126135 -1.836148 4.283769 -0.674323 -13.023051 20.397399 -10.508538 -14.540961 18.640798 0.000000 0.000000 0.000000 -4.311367 -3.306535 19.288168 6.297455 1.833265 -29.196219 0.457182 13.041803 30.560380 -1.269990 8.911467 -35.790291 0.000000 0.000000 0.000000 -22.771104 -0.937516 -43.849224 -52.398893 33.822793 -16.217399 -14.115921 -36.764095 -0.375392 0.000000 0.000000 0.000000 29.987696 -10.165428 29.502946 49.190711 45.068053 7.418084 -24.315861 20.456019 -2.507754 0.000000 0.000000 0.000000 
